<svg xmlns="http://www.w3.org/2000/svg" x="0px" y="0px" viewBox="-72.9 631.5 142.5 91.1" style="vertical-align: middle; max-width: 100%; width: 100%;" width="100%"><g>
	<g>
		<g>
			<path d="M-27.5,648.8c-8,4.4-15.1,9.6-17.6,18.9c-2.2,8-1.3,17,1.6,24.7c6,15.9,20.1,27.6,37,29.9c16.5,2.2,38.5-4.5,45.8-20.9      c6.3-14.2,3.3-36.5-6.9-48.3c-7.1-8.2-17.5-10.7-27.9-12C-7,639.7-17.4,643.4-27.5,648.8c-2.1,1.1-0.2,4.4,1.9,3.2      c7.5-4,16.1-7.8,24.7-7.6c8.2,0.2,17.7,1.7,24.7,6.2c13.3,8.5,16.2,27.3,14.1,41.8c-2.5,17.1-20.7,26.1-36.6,26.5      c-15.5,0.4-29.9-7.4-37.8-20.8c-4.2-7.1-6.5-15.4-5.9-23.6c0.8-11.2,7.5-17.4,16.8-22.5C-23.5,650.9-25.4,647.6-27.5,648.8z" fill="rgb(62,62,62)"></path>
		</g>
	</g>
	<g>
		<g>
			<path d="M-22.7,681.2c-1.1,12.9,8.9,20.9,21,20.9c6.6,0,13.5-0.8,19.6-3.6c6-2.8,6.6-6.7,6.7-13.1c0-6-1.3-11.8-6.3-15.7      c-3.9-3-10.5-5.9-15.4-6.6c-12.1-1.6-23.5,5.8-25.6,17.9c-0.1,0.8,1.1,1.1,1.2,0.3c1.9-11.3,11.3-17.1,22.3-17.1      c4.5,0,10,2.5,13.9,4.6c5.9,3.2,8.4,8.4,8.6,14.9c0.1,2.3,0.1,4.8-0.3,7c-1,4.4-4.6,6.3-8.6,7.7c-4.9,1.7-10.1,2.2-15.2,2.3      c-5.8,0.1-11.4-0.8-15.7-5.1c-3.8-3.8-5.4-9.2-4.9-14.4C-21.3,680.4-22.6,680.5-22.7,681.2z" fill="rgb(62,62,62)"></path>
		</g>
	</g>
	<g>
		<g>
			<path d="M-65.1,713.5c0.4-7.7,0.8-15.3,1.1-23c0.4-7.4,1.5-15.1,0.6-22.5c-0.3-2.7-1-5.3-2-7.8c-1.3-3.3-3.7-5.9-4.6-9.4      c-2-7.3,4.6-17.8,13-14.2c9.6,4.1,4.4,15.4,0,21.2c-3.3,4.4-4.8,8.6-4.8,14.2c-0.1,7.5,0.5,15,0.4,22.6      c-0.1,3.6-0.2,7.2-0.4,10.8c-0.1,2-0.2,3.9-0.4,5.9c-0.1,1-0.1,2-0.2,2.9C-64.7,715.7-65.6,715.5-65.1,713.5c0-1.6-2.5-1.6-2.5,0      c-0.1,2.8,0.9,7.7,5,6.6c1.8-0.5,2.2-2.1,2.5-3.7c0.8-3.9,0.7-8.1,0.9-12.1c0.4-8.8,0.5-17.6,0.1-26.4c-0.2-4-0.6-8.1,0.5-12      c1.1-4.1,4.3-6.9,6.5-10.3c5-7.7,3.7-21.6-7.6-22.2c-10.1-0.5-16,12.3-11.9,20.7c2.7,5.4,5.4,9.5,5.9,15.8      c0.4,4.7-0.1,9.3-0.4,14c-0.6,9.9-1,19.8-1.5,29.6C-67.7,715.1-65.2,715.1-65.1,713.5z" fill="rgb(62,62,62)"></path>
		</g>
	</g>
	<g>
		<g>
			<path d="M52.5,634.6c-0.5,0.8,1,7.4,1.2,8.5c0.1,1.3,2.2,1.8,2.5,0.3c0.3-1.7,0.6-3.5,0.8-5.2c0.1-0.8,0.2-5.3,0.5-2.4      c0.2,2.5-0.2,4.9,0.6,7.3c0.1,0.4,0.4,0.8,0.9,0.9c1.9,0.3,2.7-0.4,3.3-2.2c0.5-1.7-0.6-4,0.1-5.5c-0.6,1.4,0.4,4.9,0.6,6.6      c0.2,1.6,2.3,1.6,2.5,0c0.2-2.1,0.8-4.4,1.3-6.5c0.8-3.5,0.3,0.2,0.2,1.1c-0.2,4.3-2,7.1-3.4,11c-2.5,7-1.1,15.7-1,22.9      c0.1,8.2-0.2,16.2-0.6,24.4c-0.2,4.5,0,9.1,0,13.6c0,0.6,0.5,7,0.6,6.8c-0.3,0.4-2.6,0.2-3.1,0.2c-0.5,0-2.6,0.4-2.9,0.1      c0.2,0.2,0.5-4.9,0.5-5.5c0-4.3,0.1-8.5,0-12.8c0-8.9-0.2-17.9-0.2-26.8c0-6.2,2.4-13.5,0.1-19.5c-1.1-3-3.1-5.4-3.8-8.6      c-0.7-2.9-1.2-6.2-0.5-9.1c0.4-1.6-2.1-2.2-2.4-0.7c-1.3,5.9,0.7,12.2,3.5,17.3c2.8,5.2,1.1,10.5,0.7,15.9      c-0.3,5.6,0,11.3,0,16.9c0,5.8,0.1,11.5,0.1,17.3c0,2.7,0,5.5,0,8.2c0,2.3-0.8,6.1,0.1,8.2c1.1,2.9,6.3,1.5,8.9,1.2      c0.5-0.1,0.9-0.7,0.9-1.2c0-6,0-12,0-18c0-4.7,0.8-9.2,0.8-13.9c0-5.7-0.2-11.3-0.3-17c-0.1-5.4-0.7-11.1,0.3-16.4      c0.7-4.1,3.4-7.4,3.9-11.5c0.3-1.9,1-7.2-1.2-8.7c-4-2.6-4.9,9-5.1,11c0.8,0,1.7,0,2.5,0c-0.4-3.2,0.3-9-2.8-11      c-0.5-0.3-1.1-0.2-1.5,0.2c-1.9,1.6-1.5,4.9-1.3,7.2c0.3,3.4,0.2-1.3,0.1-2.4c-0.1-1.1,0-3-0.8-3.9c-4.3-5.2-5.2,8.5-5.4,9.8      c0.8,0.1,1.6,0.2,2.5,0.3c-0.3-2.6,0.3-8.4-1.6-10.5c-1.5-1.7-3.2-0.9-4.2,0.8C49.5,634.7,51.7,636,52.5,634.6z" fill="rgb(62,62,62)"></path>
		</g>
	</g>
</g></svg>