<svg xmlns="http://www.w3.org/2000/svg" x="0px" y="0px" viewBox="0 0 771.1 517.6" style="vertical-align: middle; max-width: 100%; width: 100%;" width="100%"><g>
	<path d="M211.7,155.2c-0.1-4.7,1.8-9.6,5.1-14.5c6.4-9.6,12.1-19.7,17.6-29.9c1.9-3.5,2.2-7.7-1-11.6c-5.1-6.3-10.6-11.6-18.5-14.8    c-5.2-2.1-9.3-6.7-14-10.1c-5.2-3.8-11.1-6.8-15.6-11.3c-5-5-12.4-7.7-14.7-15.3c-0.2-0.8-0.5-1.6-0.7-2.4    c-0.6,0.2-1.2,0.4-1.8,0.5c-0.4,1.8-1.1,3.5-1.2,5.3c-1,13.7-1.4,27.5-3,41.1c-1.2,11-4.2,21.8-5.5,32.8c-1,8.1-0.5,16.5-1.1,24.7    c-0.4,4.9-1.8,9.7-2.5,14.6c-0.4,3.3,0,6.7-0.4,10.1c-1.9,16.9-3,33.9-6.2,50.6c-2.4,12.5-1.4,25.2-3.9,37.6c-0.8,3.9,0.2,8-2,11.7    c-1.9,3.1-2.8,6.6-7.8,6c-1.1-0.1-3.9,3-3.7,4.3c0.8,4.4-2.2,6.5-4.4,9.3c-1,1.3-1.6,2.7-2.5,4.1c-0.7,1.1-1.3,2.4-2.3,3.1    c-13.7,9.5-28.5,17.1-44.3,22.5c-9.6,3.3-19.3,6.4-30,3.9c-6.3-1.5-13.3-0.6-19.4-2.7c-9.2-3.1-19-6.8-23.4-16.5    C2.1,302.8,0,296.7,0,290.9c0-7.8,2.2-15.6,3.5-23.4c0.1-0.5,0.5-0.9,0.6-1.3c2.3-11.7,10.4-19.3,18.5-27.4    c8.6-8.6,19.4-11.9,30.1-15.9c0.3-0.1,0.8,0,1-0.2c8-7.1,17.1-3.5,25.9-2.8c4.3,0.3,8.7,0.7,12.9,1.7c8.6,2.1,17.1,4.7,26,7.2    c-0.1,0.2,0.3-0.5,0.4-1.2c1.9-12.5,4.2-24.9,5.6-37.4c1.4-12,1.6-24.2,3.2-36.2c2.3-17.7,5.4-35.3,8.2-53c0.4-2.5,0.4-5,0.8-7.4    c2.7-17.7,4.2-35.7,8.6-52.9c3.1-12,3.6-24.2,5.8-36.2c0.2-1.3,0.6-2.5,1-4.3c3.6,1.1,7,2,10.1,3.3c1,0.4,1.7,1.7,2.4,2.7    c0.9,1.2,1.7,2.4,2.6,3.6c0.6,0.9,1.8,1.8,1.8,2.7c0.3,5.1,3.5,7.4,7.8,9.1c2.2,0.9,4.7,2.4,5.8,4.4c3.7,6.2,9.9,9.4,15.1,13.6    c8.1,6.5,16.6,12.4,24.9,18.6c4.5,3.3,8.7,7,13.5,9.6c2.3,1.2,5.1,0.6,7.7,3c9.2,8.1,15,17.4,17.7,29.5c2.1,9.1-2.1,16.4-4.1,24    c-1.7,6.7-7.9,12.2-12.1,18.2c-2.8,4-5.6,8.1-8.3,12.2c-3.7,5.5-8.9,8.5-15.5,8.9c-1.1,0.1-2.4-1.1-3.4-2    C216.4,159.7,214.5,157.8,211.7,155.2z" fill="rgb(62,62,62)"></path>
	<path d="M734.5,253.4c-1-4.5-1.7-9.2-3.1-13.6c-2.5-8-5.6-15.7-8.2-23.7c-1.5-4.6-4-8.6-5.7-13c-2.8-7.1-4.4-14.6-6.5-21.9    c-0.5-1.6-1-3.3-1.6-4.9c-2.6-7.4-5.3-14.8-7.7-22.3c-2.6-8.4-4.3-17.1-7.5-25.2c-1.7-4.2-0.5-9.4-4.8-12.9    c-1.4-1.2-0.8-4.6-1.5-6.9c-0.8-2.8-2.4-3.6-5.3-2.3c-15.5,7-31.9,12.5-46.3,21.3c-17.3,10.5-36.3,17.1-54.3,25.8    c-6.6,3.2-13.9,5.1-21,7.2c-1.9,0.6-4.2-0.3-7-0.6c1.1,4.4,1.7,8.7,3.1,12.7c3.8,10.7,9.1,21.1,11.4,32.1    c2.4,11,8.2,20.2,11.8,30.4c2.5,7.1,4.7,14.3,7.5,21.3c2.1,5.4,4.7,10.6,7.3,15.8c5.6,11.2,11.1,22.5,17.1,33.5    c2,3.8,5.3,6.9,7.9,10.4c1,1.4,2.8,3.5,2.4,4.5c-2.8,6.1,1,10.7,3.4,15.4c2.5,4.8,0.6,7.4-2.8,10.4c-1.9,1.6-2.8,4.4-4.6,6.1    c-3.6,3.4-7.2,7-11.3,9.4c-9,5.3-18,10.7-27.6,14.4c-7.5,2.9-15.9,3.6-24,4.6c-9.5,1.2-19.1,1.9-28.7,2.2    c-7.3,0.2-13.6-2.7-19.8-6.9c-6-4.1-9.4-9.5-13.1-15.5c-7.2-11.6-0.3-25.7,8.1-33.9c5.4-5.3,11.7-8.7,17.4-13.3    c4.5-3.6,10.8-5,16.1-7.9c6.5-3.6,13.2-4.2,20.4-4c6.9,0.2,13.8-0.9,20.8-1.2c2.2-0.1,4.5,0.4,7.5,0.7c-0.6-1.8-1-3.5-1.6-5    c-3.2-7.2-6.4-14.3-9.6-21.5c-2.1-4.7-4.4-9.2-6.2-14c-4.3-10.9-8.6-21.8-12.4-32.8c-3-8.8-5.5-17.8-7.7-26.8    c-1.9-7.9-3-15.9-4.7-23.8c-1.5-7-3.3-14-4.6-21c-0.4-1.9-0.2-4.9,0.9-5.7c1.9-1.4,5.2-2.6,7.1-1.9c3.4,1.4,5.2,0.9,7.1-2    c0.6-0.9,1.7-1.5,2.7-2c18.9-9.2,37.8-18.3,56.6-27.8c4.7-2.4,8.6-6.2,12.9-9.4c0.8-0.6,1.5-1.3,2.4-1.7    c16.6-8.2,33.3-16.4,49.9-24.6c3-1.5,5.6-3.6,8.6-4.9c2.3-1,4.9-1.4,7.4-1.8c2.1-0.3,4.2-0.2,7.5-0.3c2.5,4.4,5.7,9.4,8.1,14.7    c1.3,2.9,1.5,6.3,2.1,9.4c0.6,2.8,0.9,5.8,1.8,8.5c2.9,8.5,6.7,16.7,8.8,25.3c2.6,10.5,5.5,20.8,9.6,30.9    c2.9,7.3,3.9,15.4,6.5,22.9c2.1,6.3,5.7,12.1,7.8,18.4c2.8,8.1,4.8,16.5,7.1,24.8c0.4,1.3,1,2.5,1.4,3.7    c5.5,14,11.3,27.9,16.5,41.9c1.3,3.5,0.7,7.1-1.8,11c-7.1,10.8-17.6,17.9-26.8,26.4c-5.3,4.9-12.6,7.5-18.9,11.2    c-2.9,1.7-5.6,4-8.4,5.8c-9.2,6-19.6,5.5-30,5.7c-9.5,0.1-17.7-2.3-23.9-9.4c-2.7-3.2-5.4-6.4-7-10.9c-5.3-14.4,3.6-23.7,11-33.1    c3.5-4.5,9.9-7,15.3-9.7c9.4-4.7,19.7-7.8,28.6-13.4C716.8,253.7,725.8,256.1,734.5,253.4z M600.4,334.6    c-11.7-3.4-21.6-9.2-34.1-8.2c-10,0.8-19.6,1.3-28.4,6.4c-5.8,3.4-11.7,6.6-17.4,10.1c-4.3,2.7-5.5,7.3-2.1,10.2    c3.5,3,7.9,5.9,12.3,6.6c6,0.9,12.6,0.5,18.5-0.9c11.2-2.8,22.4-6.4,33.2-10.5c5.4-2,10.3-5.8,15.2-9.1    C598.8,338.6,599.2,336.7,600.4,334.6z M741.3,281.6c-0.3-0.5-0.7-0.9-1-1.4c-1.4-0.1-2.9-0.2-4.3-0.4c-7.5-1.1-14.8-0.8-21.8,2.4    c-5.9,2.7-12.4,4.6-17.6,8.2c-5.9,4-13.4,6.1-16.8,13.5c-1.7,3.6-0.8,7.5,3.1,7.4c5.5-0.1,11.3-0.4,16.4-2.2    c10.9-3.8,20.6-9.9,29.5-17.3C732.9,288.3,737.1,285,741.3,281.6z" fill="rgb(62,62,62)"></path>
	<path d="M417.6,435.5c0-3.4,0-5.2,0-7c0-17.5-0.4-35,0.2-52.5c0.3-8.9,2.3-17.7,3.6-26.6c0.1-0.8,0.2-1.7,0.2-2.5    c0.1-11.4,2.4-22.3,5.7-33.2c1.2-3.9,1.2-8.1,1.8-12c-3.2,0.3-6.1,0.8-8.9,0.9c-11.7,0.7-23.3,1.8-35,1.8c-5.4,0-10.7-2.1-16.1-3.3    c-0.6-0.1-1.3-0.4-1.9-0.5c-6.5-0.7-13.1-0.9-19.5-2.2c-8.3-1.6-16.3-4-24.5-6.1c-5.2-1.3-10.3-3.1-15.5-3.6    c-6.4-0.6-13-0.1-19.5-0.2c-3.2-0.1-4.5,1-4.5,4.3c0.1,26-0.1,52,0.1,78c0,7,1.5,14,1.4,21c-0.2,18-1.3,36.1-1.3,54.1    c0,9.9-1.7,18.8-5.9,28c-5.7,12.6-15.4,20.1-26.6,26.7c-2.5,1.4-5.6,2-8.5,2.4c-6.6,0.9-13.3,1.8-20,2.2c-6.8,0.4-13.5,0.1-20.3,0    c-7.3-0.1-12.9-4.2-18.7-8c-13.5-8.8-11.3-22.5-10.3-35.3c0.4-4.7,3.7-9.5,6.6-13.5c5.4-7.4,11-14.8,17.6-21.1    c3.5-3.4,9.2-4.6,14-6.8c3.5-1.6,7.1-3,10.6-4.6c0.9-0.4,1.7-1.2,2.6-1.3c7.3-0.8,14.7-1.3,22-2.1c2.4-0.3,4.8-1.1,7.2-1.3    c1.8-0.2,3.7,0.3,6.2,0.5c0.1-1.3,0.4-3,0.4-4.8c0-13.7,0.3-27.3,0-41c-0.2-7.9-1.6-15.7-1.7-23.5c-0.1-5.9,1.6-11.7,1.6-17.6    c0-6.7-2.7-13.7-1.5-20c3.5-18.4,1-36.8,1.5-55.1c0.3-9.3,0.1-19-2.3-27.9c-1.9-7.1,2.2-13.1,0.7-19.7c-0.2-1,1.1-2.9,2.2-3.5    c7.5-4.6,17.9,0.8,18.6,9.5c0.3,3.6,3.2,5.4,7.8,3.4c6.1-2.6,11.6,0.5,17.2,1c8,0.7,15.9,3.1,23.7,5.4c12.9,3.7,26.2,2.6,39,1.6    c28-2.3,56-1.1,84-1.8c5.4-0.1,10.7-2.2,16.1-3.1c1.2-0.2,3.1,0.2,3.8,1c1.7,1.9,2.6,4.6,4.4,6.5c6.3,6.8,5,5.2,0.8,14.4    c-4.5,10-11,19.2-12.5,30.7c-0.9,6.9-4.8,13.4-6.8,20.2c-1.9,6.5-3.3,13.2-4.8,19.9c-2,9.4-3.8,18.8-5.7,28.2c-0.2,1-0.1,2-0.3,3    c-1.2,7.4-2.4,14.8-3.6,22.2c-0.1,0.8-0.3,1.6-0.3,2.5c-0.7,20.4-1.4,40.8-2,61.2c-0.2,8,0.1,16-0.1,24c-0.1,3.1-1.5,6.1-1.4,9.1    c0.1,5,1,10.1,1.3,15.1c0.3,6.2,1.6,12.4-2,18.4c-5.7,9.2-14.7,13.8-24,17.5c-6.6,2.6-13.9,3.5-20.9,4.6    c-9.2,1.5-18.4,2.7-27.7,3.9c-1.3,0.2-2.7,0.1-4,0.1c-3.3,0-6.7,0.7-9.7-0.2c-4.3-1.2-8.6-3.1-12.3-5.6    c-5.9-3.9-8.6-10.9-10.7-16.9c-2.2-5.9-1.1-13.5,0.1-20.1c1.6-9.1,8-15.7,13.4-23c5.9-7.9,13.2-12.2,22-15.3    c5.3-1.8,10.1-5.1,15.4-6.8c4.9-1.6,10-2.8,15.4-1.6c2,0.4,4.2,0.4,6.3,0.2C407.6,427.6,411.8,431.5,417.6,435.5z M284,268    c8.8-0.1,17.1-0.5,25.2-0.1c7,0.3,14.1,0.8,21,2.2c9.9,2,19.4,5.6,29.3,7.4c8.3,1.5,17,2.2,25.5,2.1c15.7-0.2,31.3-1.1,47-2    c1.2-0.1,2.9-1.8,3.4-3c3-8.8,5.2-17.8,8.7-26.3c2-4.9,0.1-5.1-3.6-5.1c-9.3-0.1-18.7-0.3-28-0.6c-6.5-0.2-13-0.9-19.5-1.3    c-1.3-0.1-2.7,0.1-4,0.2c-4.4,0.5-8.7,1.3-13,1.7c-10.3,0.9-20.9-2-31,1.9c-0.5,0.2-1.3,0-2-0.2c-8.7-1.9-17.4-3.7-26.1-5.7    c-6.4-1.5-13-3-19.1-5.3c-10.3-4-17.2,0.8-16.1,11.7c0.7,7,1.3,14.1,2,21.1C283.7,267.4,284.1,268.3,284,268z" fill="rgb(62,62,62)"></path>
</g></svg>