<svg xmlns="http://www.w3.org/2000/svg" x="0px" y="0px" viewBox="0 0 96.2 394.1" style="vertical-align: middle; max-width: 100%; width: 100%;" width="100%" height="100%"><g>
	<g>
		<g>
			<path d="M40.7,394c15.5-7.1,27.3-21.6,31.2-38.2c4.9-21-4.4-42.2-1.3-63.3c2.9-19.9,15.5-36.7,19.3-56.4      c3-15.8,0.3-33.7-14.6-42.7c-13.3-8-29.9-7.1-44.5-11c-7.7-2-15.1-5.5-20.2-11.9c-5.4-6.8-7.5-15.8-6.7-24.4      c1.6-18.6,16.8-32.4,33.4-38.8c9.1-3.5,19.1-4.7,27.7-9.7c6.6-3.9,11.9-9.6,15.7-16.2c7.7-13.5,8.9-30.4,2.9-44.8      c-6.5-15.2-20-26.9-35.3-33C44.4,2,40.4,0.8,36.2,0c-0.9-0.2-1.3,1.3-0.4,1.4c16.7,3.3,32.4,13,41.8,27.4      c9,13.9,10.7,31.1,4.4,46.4c-3,7.4-7.9,14.1-14.4,18.9c-7.9,5.8-17.5,7.5-26.7,10.4c-15.8,5-31.1,16-36.6,32.2      c-5,14.6-1.2,32.2,12,41.1c12.8,8.7,29.3,8.1,43.8,11.5c7.4,1.7,14.7,4.5,20.2,9.9c6.2,6.2,8.9,14.7,9.2,23.3      c0.7,19.5-9.8,36.3-16.3,54c-3.5,9.7-5.2,19.4-4.7,29.7c0.5,10.7,2.7,21.2,3.2,31.8c0.4,9.6-0.9,19-5,27.8      c-3.6,7.7-9,14.6-15.7,20c-3.4,2.7-7.2,5-11.2,6.8C39,393.1,39.8,394.4,40.7,394L40.7,394z" fill="rgb(62,62,62)"></path>
		</g>
	</g>
</g></svg>